# xmcd CD database file
#
# Track frame offsets:
#	150
#	19983
#	39865
#	59230
#	79223
#	96705
#	117638
#	134300
#	152548
#	174955
#	192740
#	215403
#	233428
#	256728
#	275005
#
# Disc length: 3895 seconds
#
# Revision: 4
# Processed by: cddbd v1.5PL3 Copyright (c) Steve Scherf et al.
# Submitted via: CDex 1.50
#
DISCID=d90f350f
DTITLE=The Corrs - Talk on Corners
DYEAR=1997
DGENRE=Pop
TTITLE0=Only When I Sleep
TTITLE1=When He's Not Around
TTITLE2=What Can I Do
TTITLE3=I Never Loved You Anyway
TTITLE4=So Young
TTITLE5=Don't Say You Love Me
TTITLE6=Love Gives Love Takes
TTITLE7=Hopelessly Addicted
TTITLE8=Paddy McCarthy
TTITLE9=Intimacy
TTITLE10=Queen of Hollywood
TTITLE11=No Good for Me
TTITLE12=Little Wing
TTITLE13=Remember
TTITLE14=WHAT I KNOW
EXTD=YEAR: 1997
EXTT0=
EXTT1=
EXTT2=
EXTT3=
EXTT4=
EXTT5=
EXTT6=
EXTT7=
EXTT8=
EXTT9=
EXTT10=
EXTT11=
EXTT12=
EXTT13=
EXTT14=
PLAYORDER=
